<mxfile host="app.diagrams.net" modified="2022-05-29T03:16:24.919Z" agent="5.0 (Windows NT 10.0; Win64; x64) AppleWebKit/537.36 (KHTML, like Gecko) Chrome/101.0.4951.67 Safari/537.36" etag="eDOgFgorRAnaTVx5ojc9" version="18.1.3" type="github">
  <diagram id="PVdCfdHXLEt_9WwVZcfN" name="Page-1">
    <mxGraphModel dx="1038" dy="547" grid="1" gridSize="10" guides="1" tooltips="1" connect="1" arrows="1" fold="1" page="1" pageScale="1" pageWidth="827" pageHeight="1169" math="0" shadow="0">
      <root>
        <mxCell id="0" />
        <mxCell id="1" parent="0" />
        <mxCell id="waUtbsq5y6apSech4ZY3-2" value="clue" style="swimlane;fillColor=#f5f5f5;fontColor=#333333;strokeColor=#666666;" parent="1" vertex="1">
          <mxGeometry x="200" y="230" width="140" height="270" as="geometry">
            <mxRectangle x="200" y="230" width="130" height="23" as="alternateBounds" />
          </mxGeometry>
        </mxCell>
        <mxCell id="waUtbsq5y6apSech4ZY3-6" value="clueId {PK}&lt;br&gt;rank&lt;br&gt;&lt;div style=&quot;&quot;&gt;title&lt;/div&gt;&lt;div style=&quot;&quot;&gt;accuserPhoneHash&lt;/div&gt;&lt;div style=&quot;&quot;&gt;beAccuseId&lt;/div&gt;&lt;div style=&quot;&quot;&gt;type&lt;/div&gt;&lt;div style=&quot;&quot;&gt;content&lt;/div&gt;&lt;div style=&quot;&quot;&gt;startTime&lt;/div&gt;&lt;div style=&quot;&quot;&gt;endTime&lt;/div&gt;&lt;div style=&quot;&quot;&gt;status&lt;/div&gt;&lt;div style=&quot;&quot;&gt;result&lt;/div&gt;&lt;div style=&quot;&quot;&gt;staff_id&lt;/div&gt;&lt;div style=&quot;&quot;&gt;vertificationCode&lt;/div&gt;&lt;div style=&quot;&quot;&gt;notes&lt;/div&gt;&lt;div style=&quot;&quot;&gt;address&lt;/div&gt;&lt;div style=&quot;&quot;&gt;signUserId&lt;/div&gt;" style="text;html=1;align=left;verticalAlign=middle;resizable=0;points=[];autosize=1;strokeColor=none;fillColor=none;" parent="waUtbsq5y6apSech4ZY3-2" vertex="1">
          <mxGeometry x="10" y="30" width="120" height="230" as="geometry" />
        </mxCell>
        <mxCell id="waUtbsq5y6apSech4ZY3-5" value="file" style="swimlane;fillColor=#f5f5f5;fontColor=#333333;strokeColor=#666666;" parent="1" vertex="1">
          <mxGeometry x="470" y="430" width="140" height="70" as="geometry">
            <mxRectangle x="470" y="430" width="50" height="23" as="alternateBounds" />
          </mxGeometry>
        </mxCell>
        <mxCell id="waUtbsq5y6apSech4ZY3-9" value="fileId {PK}&lt;br&gt;clueId" style="text;html=1;align=left;verticalAlign=middle;resizable=0;points=[];autosize=1;strokeColor=none;fillColor=none;" parent="waUtbsq5y6apSech4ZY3-5" vertex="1">
          <mxGeometry x="10" y="30" width="70" height="30" as="geometry" />
        </mxCell>
        <mxCell id="waUtbsq5y6apSech4ZY3-3" value="beAccused" style="swimlane;fillColor=#f5f5f5;strokeColor=#666666;fontColor=#333333;" parent="1" vertex="1">
          <mxGeometry x="470" y="230" width="140" height="140" as="geometry" />
        </mxCell>
        <mxCell id="waUtbsq5y6apSech4ZY3-8" value="&lt;span style=&quot;&quot;&gt;beAccusedId {PK}&lt;/span&gt;&lt;br style=&quot;&quot;&gt;&lt;span style=&quot;&quot;&gt;name&lt;/span&gt;&lt;br style=&quot;&quot;&gt;&lt;span style=&quot;&quot;&gt;level&lt;/span&gt;&lt;br style=&quot;&quot;&gt;&lt;span style=&quot;&quot;&gt;area&lt;/span&gt;&lt;br style=&quot;&quot;&gt;&lt;span style=&quot;&quot;&gt;workUnit&lt;br&gt;duty&lt;br&gt;accusedTimes&lt;br&gt;&lt;/span&gt;" style="text;html=1;align=left;verticalAlign=middle;resizable=0;points=[];autosize=1;" parent="waUtbsq5y6apSech4ZY3-3" vertex="1">
          <mxGeometry x="10" y="30" width="110" height="100" as="geometry" />
        </mxCell>
        <mxCell id="waUtbsq5y6apSech4ZY3-18" value="" style="endArrow=none;html=1;rounded=0;elbow=vertical;entryX=0;entryY=0.5;entryDx=0;entryDy=0;" parent="1" target="waUtbsq5y6apSech4ZY3-3" edge="1">
          <mxGeometry width="50" height="50" relative="1" as="geometry">
            <mxPoint x="340" y="300" as="sourcePoint" />
            <mxPoint x="430" y="298" as="targetPoint" />
          </mxGeometry>
        </mxCell>
        <mxCell id="waUtbsq5y6apSech4ZY3-19" value="1...1" style="text;html=1;strokeColor=none;fillColor=none;align=center;verticalAlign=middle;whiteSpace=wrap;rounded=0;" parent="1" vertex="1">
          <mxGeometry x="438" y="280" width="34" height="10" as="geometry" />
        </mxCell>
        <mxCell id="waUtbsq5y6apSech4ZY3-24" value="1...*" style="text;html=1;strokeColor=none;fillColor=none;align=center;verticalAlign=middle;whiteSpace=wrap;rounded=0;" parent="1" vertex="1">
          <mxGeometry x="340" y="280" width="30" height="10" as="geometry" />
        </mxCell>
        <mxCell id="waUtbsq5y6apSech4ZY3-27" value="" style="endArrow=none;html=1;rounded=0;elbow=vertical;entryX=0;entryY=0.5;entryDx=0;entryDy=0;" parent="1" target="waUtbsq5y6apSech4ZY3-5" edge="1">
          <mxGeometry width="50" height="50" relative="1" as="geometry">
            <mxPoint x="340" y="465" as="sourcePoint" />
            <mxPoint x="400" y="440" as="targetPoint" />
          </mxGeometry>
        </mxCell>
        <mxCell id="waUtbsq5y6apSech4ZY3-29" value="1...1" style="text;html=1;strokeColor=none;fillColor=none;align=center;verticalAlign=middle;whiteSpace=wrap;rounded=0;" parent="1" vertex="1">
          <mxGeometry x="340" y="450" width="30" height="10" as="geometry" />
        </mxCell>
        <mxCell id="waUtbsq5y6apSech4ZY3-30" value="0...*" style="text;html=1;strokeColor=none;fillColor=none;align=center;verticalAlign=middle;whiteSpace=wrap;rounded=0;" parent="1" vertex="1">
          <mxGeometry x="440" y="450" width="30" height="10" as="geometry" />
        </mxCell>
        <mxCell id="waUtbsq5y6apSech4ZY3-31" value="attach&amp;nbsp;" style="text;html=1;strokeColor=none;fillColor=none;align=center;verticalAlign=middle;whiteSpace=wrap;rounded=0;" parent="1" vertex="1">
          <mxGeometry x="370" y="470" width="60" height="20" as="geometry" />
        </mxCell>
      </root>
    </mxGraphModel>
  </diagram>
</mxfile>
